<?xml version="1.0" encoding="UTF-8"?> <svg xmlns="http://www.w3.org/2000/svg" viewBox="0 0 991.21 210.07"><g fill="#ffffff"><path d="m441.89 44.58-10.8-39.87-43.58 33.3 18.66.35h.01l-46.47 118.3h23.04l45.46-115.43z"></path><path d="m59.64 65.59c-20.24 0-30.15 17.23-30.15 35.69 0 19.96 11.76 34.8 30.56 34.8s30.56-14.16 30.56-35.14-12.99-35.35-30.97-35.35m-31.86-4.44c8.61-12.1 22.29-18.18 37.26-18.18 29.47 0 51.48 23.17 51.48 57.98 0 31.72-18.6 57.97-51.42 57.97-13.67 0-26.53-4.71-34.8-15.51v42.37l-25.91 19.98v-160.54h21.27z"></path><path d="m133.96 45.22h21.27l2.25 17.03.21.07c6.29-13.26 15.38-19.35 30.22-19.35 5.13 0 9.98.75 14.7 2.11l-4.03 23.86c-4.03-1.23-7.86-1.85-11.97-1.85-22.01 0-26.86 18.87-26.86 40.82v48.75h-25.78v-111.44z"></path><path d="m289.02 91.03c-1.3-14.57-10.6-26.73-27.42-26.73-15.72 0-27.07 10.66-29.4 26.73zm-25.78 67.89c-31.52 0-57.36-20.1-57.36-57.29s24.68-58.66 55.79-58.66 52.57 24.27 52.57 56.06c0 3.55-.27 7.38-.54 9.57h-81.84c1.85 18.19 14.5 29.19 33.02 29.19 11.07 0 22.01-3.96 30.42-10.32l11.7 16.07c-10.94 9.64-26.94 15.38-43.76 15.38"></path><path d="m512.38 91.03c-1.3-14.57-10.6-26.73-27.42-26.73-15.72 0-27.07 10.66-29.4 26.73zm-25.78 67.89c-31.52 0-57.36-20.1-57.36-57.29s24.68-58.66 55.79-58.66 52.57 24.27 52.57 56.06c0 3.55-.27 7.38-.55 9.57h-81.83c1.85 18.19 14.5 29.19 33.02 29.19 11.07 0 22.01-3.96 30.42-10.32l11.7 16.07c-10.94 9.64-26.94 15.38-43.76 15.38"></path><path d="m639.22 100.59c0-19.96-11.76-34.8-30.56-34.8s-30.56 14.16-30.56 35.15 12.99 35.35 30.97 35.35c20.24 0 30.15-17.23 30.15-35.69m1.64 40.13c-8.54 12.1-22.22 18.18-37.26 18.18-29.47 0-51.48-23.17-51.48-57.97 0-31.73 18.6-57.98 51.48-57.98 13.67 0 26.53 4.71 34.8 15.51v-33.9l25.91-19.91v152h-21.26z"></path><path d="m762.48 91.03c-1.3-14.57-10.6-26.73-27.42-26.73-15.72 0-27.07 10.66-29.39 26.73zm-25.78 67.89c-31.51 0-57.36-20.1-57.36-57.29s24.68-58.66 55.79-58.66 52.58 24.27 52.58 56.06c0 3.55-.28 7.38-.55 9.57h-81.83c1.85 18.19 14.5 29.19 33.02 29.19 11.07 0 22.01-3.96 30.42-10.32l11.7 16.07c-10.94 9.64-26.94 15.38-43.76 15.38"></path><path d="m806.29 45.22h21.26l2.26 17.03.21.07c6.28-13.26 15.38-19.35 30.22-19.35 5.13 0 9.98.75 14.7 2.11l-4.03 23.86c-4.03-1.23-7.86-1.85-11.97-1.85-22.01 0-26.86 18.87-26.86 40.82v48.75h-25.78v-111.44z"></path><path d="m961.36 91.03c-1.3-14.57-10.6-26.73-27.42-26.73-15.72 0-27.07 10.66-29.39 26.73zm-25.78 67.89c-31.51 0-57.36-20.1-57.36-57.29s24.68-58.66 55.79-58.66 52.57 24.27 52.57 56.06c0 3.55-.27 7.38-.54 9.57h-81.84c1.85 18.19 14.5 29.19 33.02 29.19 11.07 0 22.01-3.96 30.42-10.32l11.7 16.07c-10.94 9.64-26.94 15.38-43.76 15.38"></path></g><path d="m339.17 45.22h-23.28l43.82 111.44 11.52-29.3z" fill="#ffffff"></path></svg> 